:SAMPLES-PER-SECOND 30
:FULLY-SPECIFIED
:DEGREES
1362
root  27.844 39.0273 1.98426 -149.725 -87.4011 145.127
RightUpLeg  -3.93721 -10.9941 -3.91694
RightLeg  18.5002 3.61643 1.98267
RightFoot  -9.8718 -0.0556961 -0.874138
RightToes  5.82063e-011 0 -3.6325e-017
Spine  6.38074 -2.13298 8.59675
Spine1  9.87969 -1.07141 -0.262156
HEad  -16.6132 1.20206 -5.10702
LeftShoulder1  0.652771 1.61472 -28.4327
LeftArm  -2.05007 -1.53714 -49.8398
LeftForeArm  62.4324 -78.9604 -74.4944
LeftHand  -0.105271 3.50956 5.59723
RightShoulder  -0.48449 -5.00405 25.4557
RightArm  -14.3361 -3.36611 35.6441
RightForeArm  128.113 70.5278 146.786
RightHand  -0.846128 6.4688 -8.59959
LeftUpLeg  -13.3768 9.14977 4.15366
LeftLeg  45.3055 -5.0345 -5.03779
LeftFoot  -4.45673 0.350377 -5.37694
LeftToes  -1.20963e-009 8.6283e-011 2.04439e-011
1363
root  27.1761 39.0827 1.77958 -143.992 -87.6502 139.217
RightUpLeg  -2.02791 -11.0332 -4.05717
RightLeg  17.5505 3.37903 2.04371
RightFoot  -10.5121 -0.0638327 -1.00443
RightToes  5.82063e-011 0 -3.6325e-017
Spine  6.35812 -2.02408 8.33015
Spine1  9.8887 -1.04029 -0.386707
HEad  -16.3414 1.51124 -4.98667
LeftShoulder1  0.630169 1.68117 -28.4539
LeftArm  -2.30854 -1.41781 -49.8513
LeftForeArm  62.6373 -78.9696 -74.4516
LeftHand  -0.103683 3.39628 5.19745
RightShoulder  -0.470993 -4.95595 25.578
RightArm  -14.2065 -3.17127 35.9353
RightForeArm  128.618 70.5309 146.849
RightHand  -0.804681 6.68626 -8.05851
LeftUpLeg  -14.1053 9.91908 4.00417
LeftLeg  39.3995 -5.67182 -4.62658
LeftFoot  -4.19899 0.416007 -6.25616
LeftToes  -1.20963e-009 8.6283e-011 2.04439e-011
1364
root  26.5183 39.1575 1.60278 -136.788 -87.7222 131.833
RightUpLeg  0.0198592 -11.0565 -4.34971
RightLeg  16.2433 3.16216 2.08099
RightFoot  -10.9626 -0.0705435 -1.11112
RightToes  5.82063e-011 0 -3.6325e-017
Spine  6.0848 -1.85407 7.92295
Spine1  10.4699 -0.925792 -0.783255
HEad  -16.2143 1.41511 -5.01209
LeftShoulder1  0.630558 1.66507 -28.1609
LeftArm  -2.6735 -1.51582 -50.1442
LeftForeArm  62.0365 -78.9377 -73.9213
LeftHand  -0.111986 3.33045 5.5342
RightShoulder  -0.493026 -5.01264 25.8446
RightArm  -13.8463 -2.65425 36.1608
RightForeArm  128.445 70.5023 146.875
RightHand  -0.845378 6.46038 -8.59212
LeftUpLeg  -14.3057 10.4111 3.65192
LeftLeg  32.1723 -5.64308 -3.48115
LeftFoot  -3.79179 0.461442 -6.64956
LeftToes  -1.20963e-009 8.6283e-011 2.04439e-011
1365
root  25.8432 39.2214 1.46443 -132.273 -87.7057 127.306
RightUpLeg  1.82321 -10.9238 -4.51883
RightLeg  14.9391 2.90367 2.00284
RightFoot  -11.2488 -0.0750211 -1.28045
RightToes  5.82063e-011 0 -3.6325e-017
Spine  5.63189 -1.67931 7.41687
Spine1  11.0724 -0.825642 -1.15899
HEad  -15.9304 1.2734 -4.83594
LeftShoulder1  0.576107 1.82062 -28.0965
LeftArm  -2.71421 -1.62964 -50.2579
LeftForeArm  60.622 -78.8613 -72.8598
LeftHand  -0.113082 3.34149 5.62246
RightShoulder  -0.496331 -5.01241 26.0664
RightArm  -13.4588 -2.28659 36.3741
RightForeArm  127.326 70.7087 146.352
RightHand  -0.922176 6.86794 -9.05225
LeftUpLeg  -14.2868 11.0048 3.22207
LeftLeg  24.2181 -5.31188 -2.25647
LeftFoot  -3.37413 0.459036 -6.29914
LeftToes  -1.20963e-009 8.6283e-011 2.04439e-011
1366
root  25.1767 39.2563 1.3544 -130.457 -87.8765 125.631
RightUpLeg  3.37536 -10.6467 -4.38619
RightLeg  13.7813 2.47384 1.85364
RightFoot  -11.5921 -0.0812216 -1.2584
RightToes  5.82063e-011 0 -3.6325e-017
Spine  5.12392 -1.47981 6.82944
Spine1  11.559 -0.849279 -0.949728
HEad  -15.64 1.36241 -4.66849
LeftShoulder1  0.55938 1.8842 -28.4117
LeftArm  -2.74888 -1.61187 -50.1487
LeftForeArm  60.5611 -78.8571 -72.7596
LeftHand  -0.108854 3.33837 5.3573
RightShoulder  -0.466176 -4.93738 25.6589
RightArm  -13.1256 -2.37501 37.2396
RightForeArm  127.516 70.7014 146.391
RightHand  -0.939765 6.90562 -9.19
LeftUpLeg  -14.0521 10.68 3.02453
LeftLeg  15.7149 -4.1023 -1.17977
LeftFoot  -2.73047 0.483784 -6.20002
LeftToes  -1.20963e-009 8.6283e-011 2.04439e-011
1367
root  24.4805 39.2791 1.2711 -130.127 -88.1391 125.247
RightUpLeg  5.34216 -10.3532 -4.24277
RightLeg  12.3469 2.0702 1.77721
RightFoot  -11.8785 -0.0861229 -1.23893
RightToes  5.82063e-011 0 -3.6325e-017
Spine  5.0351 -1.38449 6.32334
Spine1  11.7406 -0.861651 -0.967123
HEad  -14.9302 1.5629 -4.48679
LeftShoulder1  0.541488 1.93907 -28.4796
LeftArm  -2.55442 -1.41845 -50.005
LeftForeArm  61.1357 -78.8901 -73.2876
LeftHand  -0.121066 3.229 5.79935
RightShoulder  -0.484472 -4.9771 26.0395
RightArm  -12.4866 -2.35151 37.3518
RightForeArm  128.476 70.6559 146.604
RightHand  -0.878783 6.41452 -8.95223
LeftUpLeg  -13.2149 8.28433 3.58491
LeftLeg  7.27993 -0.802139 -0.93853
LeftFoot  -1.54754 0.565229 -6.48662
LeftToes  -1.20963e-009 8.6283e-011 2.04439e-011
1368
root  23.7282 39.2415 1.23079 -131.26 -88.522 126.364
RightUpLeg  7.0585 -10.0058 -3.90903
RightLeg  11.4983 1.52812 1.54863
RightFoot  -12.5687 -0.0958456 -1.01817
RightToes  5.82063e-011 0 -3.6325e-017
Spine  4.50845 -1.2341 5.76623
Spine1  12.4337 -0.885366 -0.666025
HEad  -14.3802 1.41638 -4.29536
LeftShoulder1  0.549186 1.9159 -28.4635
LeftArm  -2.48145 -1.33428 -50.1546
LeftForeArm  62.2288 -78.9481 -74.1414
LeftHand  -0.113529 3.36223 5.69818
RightShoulder  -0.514931 -5.05718 26.3405
RightArm  -12.1885 -2.48064 37.5353
RightForeArm  129.249 70.4596 147.061
RightHand  -0.83822 6.03435 -8.82784
LeftUpLeg  -12.629 6.20938 4.16466
LeftLeg  0.174242 2.32845 -1.25972
LeftFoot  -0.804926 0.626757 -6.74168
LeftToes  -1.20963e-009 8.6283e-011 2.04439e-011
1369
root  22.9323 39.129 1.25765 -134.203 -89.1535 129.331
RightUpLeg  8.6694 -9.88915 -3.63109
RightLeg  11.0651 1.03518 1.54332
RightFoot  -13.5871 -0.106352 -0.738102
RightToes  5.82063e-011 0 -3.6325e-017
Spine  4.02537 -1.32511 5.40823
Spine1  12.8462 -1.17811 -0.231202
HEad  -13.8146 1.62267 -4.25741
LeftShoulder1  0.493644 2.08476 -28.6611
LeftArm  -2.49828 -1.24651 -50.009
LeftForeArm  63.5112 -79.0153 -75.6369
LeftHand  -0.12901 3.03167 5.76605
RightShoulder  -0.529629 -5.09846 26.4184
RightArm  -11.6183 -2.59251 38.0068
RightForeArm  128.646 70.5584 146.804
RightHand  -0.90279 7.21041 -8.63461
LeftUpLeg  -12.8587 5.84701 4.11247
LeftLeg  -4.16136 3.6447 -1.11728
LeftFoot  -0.887403 0.679168 -7.36548
LeftToes  -1.20963e-009 8.6283e-011 2.04439e-011
1370
root  22.0822 38.9546 1.31885 -139.826 -89.8374 134.92
RightUpLeg  10.1921 -9.84273 -3.31476
RightLeg  11.1648 0.746365 1.53144
RightFoot  -14.8797 -0.116205 -0.496177
RightToes  5.82063e-011 0 -3.6325e-017
Spine  3.29389 -1.26048 5.18303
Spine1  13.7209 -1.30974 0.290107
HEad  -13.4626 2.00938 -4.43282
LeftShoulder1  0.481135 2.12013 -28.6444
LeftArm  -2.5283 -1.69058 -50.2265
LeftForeArm  63.6317 -79.0196 -75.3368
LeftHand  -0.118501 2.98472 5.17191
RightShoulder  -0.541191 -5.12713 26.5525
RightArm  -11.4087 -2.89363 38.2337
RightForeArm  129.585 70.4001 147.212
RightHand  -0.799816 6.65235 -8.03503
LeftUpLeg  -13.7782 5.64464 4.13481
LeftLeg  -4.92863 5.45512 -1.13289
LeftFoot  -0.858442 0.740137 -8.00598
LeftToes  -1.20963e-009 8.6283e-011 2.04439e-011
1371
root  21.1921 38.7517 1.41956 67.9336 -89.5549 -72.9493
RightUpLeg  11.8028 -9.8193 -3.15366
RightLeg  11.3531 0.492598 1.39991
RightFoot  -16.2253 -0.115123 -0.139819
RightToes  5.82063e-011 0 -3.6325e-017
Spine  3.33612 -1.29923 4.86911
Spine1  13.6447 -1.39069 0.476958
HEad  -13.4443 2.18123 -3.93251
LeftShoulder1  0.442819 2.22548 -28.5131
LeftArm  -2.29557 -1.85562 -50.4084
LeftForeArm  64.3496 -79.0542 -75.9701
LeftHand  -0.099504 3.6954 5.70846
RightShoulder  -0.564251 -5.1846 26.8088
RightArm  -10.9681 -3.48536 38.1791
RightForeArm  129.877 70.2956 147.432
RightHand  -0.820775 7.09448 -7.95892
LeftUpLeg  -14.6786 5.79487 3.97092
LeftLeg  -3.37602 7.53999 -1.41162
LeftFoot  0.533914 0.777831 -7.44606
LeftToes  -1.20963e-009 8.6283e-011 2.04439e-011
1372
root  20.2444 38.5516 1.55234 58.3015 -89.0801 -63.4928
RightUpLeg  13.7811 -9.76332 -3.13268
RightLeg  11.1444 0.356636 1.23077
RightFoot  -17.4853 -0.0823129 0.680802
RightToes  5.82063e-011 0 -3.6325e-017
Spine  3.18832 -1.23378 4.49971
Spine1  13.9116 -1.29555 0.429113
HEad  -13.2342 2.64851 -3.67644
LeftShoulder1  0.437228 2.2385 -28.4093
LeftArm  -2.29166 -2.20642 -50.5423
LeftForeArm  64.5474 -79.0629 -76.1408
LeftHand  -0.147594 2.79352 6.15539
RightShoulder  -0.587286 -5.24144 27.0416
RightArm  -10.754 -4.2868 38.1359
RightForeArm  130.552 70.0843 147.884
RightHand  -0.786599 6.69431 -7.87416
LeftUpLeg  -15.9237 6.17827 3.63562
LeftLeg  0.625109 8.14761 -1.4706
LeftFoot  2.21118 0.554368 -4.9902
LeftToes  -1.20963e-009 8.6283e-011 2.04439e-011
